# xmcd
#
# Track frame offsets:
#	150
#	13123
#	33333
#	50510
#	67785
#	89055
#	108918
#	142542
#	163078
#	179768
#	198165
#	213203
#	231243
#	246218
#	262433
#	280248
#	295693
#	310447
#
# Disc length: 4387 seconds
#
# Revision: 0
# Processed by: cddbd v1.5PL3 Copyright (c) Steve Scherf et al.
# Submitted via: dBpowerAMP V4.0
#
DISCID=0a112112
DTITLE=Shania Twain - Up
DYEAR=1900
DGENRE=Country
TTITLE0=Up
TTITLE1=I'm Gonna Getcha Good
TTITLE2=She's Not Just A Pretty Face
TTITLE3=Jaunita
TTITLE4=Forever And For Always
TTITLE5=Ain't No Particular Way
TTITLE6=It Only Hurts When I'm Breathing
TTITLE7=Nah
TTITLE8=That Good
TTITLE9=C'est La Vie
TTITLE10=I'm Jealous
TTITLE11=Ka-Ching
TTITLE12=Thank You Baby
TTITLE13=Waiter! Bring Me Water!
TTITLE14=What A Way To Wanna Be
TTITLE15=I Ain't Goin' Down
TTITLE16=I'm Not In The Mood
TTITLE17=In My Car
EXTD=
EXTT0=
EXTT1=
EXTT2=
EXTT3=
EXTT4=
EXTT5=
EXTT6=
EXTT7=
EXTT8=
EXTT9=
EXTT10=
EXTT11=
EXTT12=
EXTT13=
EXTT14=
EXTT15=
EXTT16=
EXTT17=
PLAYORDER=
